<svg version="1.1" id="Layer_1" xmlns="http://www.w3.org/2000/svg" xmlns:xlink="http://www.w3.org/1999/xlink" x="0px" y="0px"
	 width="100%" viewBox="0 0 512 512" enable-background="new 0 0 512 512" xml:space="preserve">

<path fill="#070504" opacity="1.000000" stroke="none" 
	d="
M0.999999,335.468658 
	C2.288369,329.116425 3.594939,323.236786 4.862054,317.348633 
	C11.297643,287.443146 25.130070,261.407074 46.653702,239.746109 
	C97.018547,189.059860 147.630066,138.618652 198.192917,88.129532 
	C199.658340,86.666229 201.556320,85.258141 203.499390,84.726891 
	C208.077499,83.475197 212.067947,86.605148 212.299194,91.633972 
	C212.582138,97.787346 212.526825,103.961876 212.439484,110.124725 
	C212.379837,114.333565 213.641205,117.870171 217.621841,119.538788 
	C221.720474,121.256882 225.204041,119.899948 228.392944,116.688484 
	C248.348160,96.592224 268.426117,76.617859 288.462585,56.602287 
	C289.286865,55.778873 290.111664,54.955685 290.920776,54.117481 
	C293.428680,51.519382 296.290710,50.155415 299.893799,51.669865 
	C303.443481,53.161858 304.656921,56.107544 304.661896,59.711494 
	C304.679077,72.209076 304.610596,84.707214 304.710815,97.204048 
	C304.756073,102.847794 307.998596,106.757469 312.844543,106.620171 
	C315.184723,106.553848 317.662567,105.427200 319.778137,104.244286 
	C350.139099,87.268021 380.444031,70.191628 410.772278,53.156769 
	C441.390533,35.959023 472.019653,18.780657 502.822021,1.296897 
	C506.252472,1.000000 509.504913,1.000000 513.000000,1.000000 
	C513.000000,4.006597 513.000000,7.016734 513.000000,10.513433 
	C500.876892,32.394066 488.712982,53.765137 476.639526,75.187195 
	C454.422729,114.606735 432.258911,154.056122 410.075073,193.494232 
	C409.586060,194.363602 409.088867,195.230789 408.651154,196.126205 
	C405.318542,202.943237 408.876373,209.136703 416.487457,209.255402 
	C428.476685,209.442383 440.471069,209.347198 452.462921,209.294846 
	C456.661957,209.276520 460.572632,209.690659 462.380463,214.256165 
	C464.115845,218.638672 461.522339,221.465073 458.709686,224.274048 
	C438.208557,244.748398 417.726227,265.241638 397.272522,285.763397 
	C392.759888,290.291016 392.375397,295.835907 396.655518,299.177704 
	C398.452484,300.580750 401.162842,301.291748 403.507507,301.421295 
	C409.319916,301.742432 415.160858,301.563416 420.990295,301.553650 
	C424.592987,301.547607 427.641174,302.584839 428.990051,306.236847 
	C430.280029,309.729309 429.187897,312.610291 426.547485,315.238739 
	C409.202637,332.505157 391.897003,349.811462 374.666779,367.192200 
	C371.043335,370.847351 367.287323,371.250244 362.592163,368.241943 
	C359.803772,363.500275 360.601379,359.924194 364.014526,356.544983 
	C374.967407,345.701202 385.771393,334.706818 396.747406,323.886780 
	C398.837402,321.826477 401.450470,320.296783 403.795227,318.542480 
	C396.880981,315.454742 391.543091,313.070953 386.043213,310.391602 
	C379.222076,303.274841 377.767059,295.041199 379.569092,285.753479 
	C381.912170,282.205780 383.659180,278.571991 386.217926,275.648804 
	C390.354462,270.923218 395.048676,266.688385 399.464905,262.204498 
	C410.601990,250.896927 421.715424,239.566071 433.135132,228.139969 
	C433.607544,227.683517 433.783203,227.331619 434.065002,226.849747 
	C434.171143,226.719772 434.089752,226.394180 434.400360,226.306213 
	C435.011139,225.948349 435.311310,225.678467 435.611511,225.408600 
	C435.051849,225.335587 434.492218,225.262589 433.607269,225.115936 
	C432.843109,225.088638 432.404236,225.134995 431.503967,225.109955 
	C425.381317,225.083771 419.720062,225.128967 413.819031,225.093063 
	C413.410645,225.005127 413.242065,224.998291 412.866882,224.678619 
	C397.924988,220.515701 391.016510,210.803223 392.707581,195.784241 
	C394.761780,191.435425 396.400299,187.245468 398.581055,183.359802 
	C426.163055,134.213669 453.825226,85.112534 481.455231,35.993324 
	C482.471313,34.186962 483.367920,32.313393 484.320221,30.471155 
	C484.004120,30.128778 483.688019,29.786402 483.371918,29.444027 
	C475.174255,34.245293 466.976624,39.046562 458.474182,43.850597 
	C457.719360,44.192345 457.269287,44.531319 456.830688,44.852821 
	C456.842224,44.835350 456.805359,44.811913 456.450623,44.860268 
	C441.609772,53.045692 427.121552,61.179020 412.638000,69.320625 
	C383.756317,85.555801 354.867493,101.778297 326.002899,118.043755 
	C317.241974,122.980621 308.562988,123.201469 300.082733,117.607460 
	C293.013367,112.944122 289.672241,106.183769 289.712524,97.719536 
	C289.743591,91.193283 289.718719,84.666779 289.718719,78.140381 
	C289.233002,77.970093 288.747284,77.799805 288.261597,77.629524 
	C278.697662,87.330597 269.174042,97.071854 259.557068,106.720100 
	C251.798141,114.504288 244.164734,122.438759 236.031143,129.816544 
	C229.275070,135.944839 220.995422,136.820099 212.621124,133.618820 
	C204.220596,130.407532 199.146423,124.152550 197.840134,115.073486 
	C197.661011,113.828537 197.284286,112.612007 196.892319,110.922165 
	C195.530594,112.140724 194.515488,112.964897 193.595627,113.884361 
	C148.824249,158.636749 104.020218,203.356583 59.307896,248.167923 
	C9.632019,297.953796 1.670240,373.660614 40.131199,432.453949 
	C53.959335,453.592346 72.113434,470.203857 95.173027,481.667114 
	C113.987617,491.604828 133.836365,496.998260 154.692505,497.798279 
	C197.241089,499.430420 234.196671,485.600311 264.704315,455.737549 
	C288.733246,432.216583 312.377441,408.300537 336.031616,384.400726 
	C340.018555,380.372406 343.891235,379.173828 348.845917,382.001190 
	C351.996368,388.277618 351.733154,390.021271 346.645416,395.100708 
	C321.660706,420.044708 297.050079,445.379730 271.560059,469.796600 
	C245.319092,494.932739 213.477814,508.605621 177.163940,512.612915 
	C166.645767,513.000000 156.291550,513.000000 145.330505,512.617676 
	C142.595200,511.881500 140.473846,511.475586 138.337128,511.181458 
	C73.204834,502.214996 18.617420,451.461182 4.893937,387.101044 
	C3.606876,381.065033 2.298481,375.033569 0.999998,369.000000 
	C1.000000,357.979095 1.000000,346.958221 0.999999,335.468658 
z"/>
<path fill="#DD8428" opacity="1.000000" stroke="none" 
	d="
M349.162048,381.874207 
	C343.891235,379.173828 340.018555,380.372406 336.031616,384.400726 
	C312.377441,408.300537 288.733246,432.216583 264.704315,455.737549 
	C234.196671,485.600311 197.241089,499.430420 154.692505,497.798279 
	C133.836365,496.998260 113.987617,491.604828 95.118835,481.349731 
	C95.165855,480.328613 95.621437,479.422119 95.809265,479.474579 
	C98.506493,480.227722 101.113770,481.391785 103.846458,481.914276 
	C118.573250,484.729858 133.251358,486.727234 148.455170,486.310242 
	C166.780396,485.807648 184.012878,480.976959 201.456192,476.588440 
	C202.470963,476.333130 203.182968,474.874390 204.297867,473.734192 
	C221.429428,467.523041 236.706970,458.769348 249.450241,446.186737 
	C282.520294,413.533783 315.364655,380.652008 348.224304,347.786774 
	C349.795319,346.215485 350.649048,343.927063 352.133667,341.816040 
	C361.018982,332.875427 369.496582,323.978027 378.275635,315.388824 
	C380.409515,313.301056 383.535461,312.227234 386.205231,310.687164 
	C391.543091,313.070953 396.880981,315.454742 403.795227,318.542480 
	C401.450470,320.296783 398.837402,321.826477 396.747406,323.886780 
	C385.771393,334.706818 374.967407,345.701202 364.014526,356.544983 
	C360.601379,359.924194 359.803772,363.500275 362.213867,368.090729 
	C357.980072,372.895813 353.729156,377.321503 349.162048,381.874207 
z"/>
<path fill="#E09446" opacity="1.000000" stroke="none" 
	d="
M204.035858,473.975708 
	C203.182968,474.874390 202.470963,476.333130 201.456192,476.588440 
	C184.012878,480.976959 166.780396,485.807648 148.455170,486.310242 
	C133.251358,486.727234 118.573250,484.729858 103.846458,481.914276 
	C101.113770,481.391785 98.506493,480.227722 95.809265,479.474579 
	C95.621437,479.422119 95.165855,480.328613 94.888977,481.106506 
	C72.113434,470.203857 53.959335,453.592346 40.131199,432.453949 
	C1.670240,373.660614 9.632019,297.953796 59.307896,248.167923 
	C104.020218,203.356583 148.824249,158.636749 193.595627,113.884361 
	C194.515488,112.964897 195.530594,112.140724 196.892319,110.922165 
	C197.284286,112.612007 197.661011,113.828537 197.840134,115.073486 
	C199.146423,124.152550 204.220596,130.407532 212.621124,133.618820 
	C220.995422,136.820099 229.275070,135.944839 236.031143,129.816544 
	C244.164734,122.438759 251.798141,114.504288 259.557068,106.720100 
	C269.174042,97.071854 278.697662,87.330597 288.261597,77.629524 
	C288.747284,77.799805 289.233002,77.970093 289.718719,78.140381 
	C289.718719,84.666779 289.743591,91.193283 289.712524,97.719536 
	C289.672241,106.183769 293.013367,112.944122 300.082733,117.607460 
	C308.562988,123.201469 317.241974,122.980621 326.002899,118.043755 
	C354.867493,101.778297 383.756317,85.555801 412.638000,69.320625 
	C427.121552,61.179020 441.609772,53.045692 456.470642,45.212105 
	C455.021942,47.793533 452.893188,49.892311 451.431732,52.382679 
	C446.869598,60.156765 442.313171,67.953552 438.230652,75.983604 
	C435.004181,82.329788 432.506470,89.044853 429.596161,95.556328 
	C429.356537,96.092400 428.433746,96.323120 427.849426,96.291382 
	C428.459839,92.379036 428.065857,89.167458 424.770050,87.081139 
	C421.357025,84.920609 418.215454,86.019287 414.971252,87.853195 
	C385.729034,104.383545 356.446716,120.842911 327.170776,137.313583 
	C315.430634,143.918610 303.735291,150.606506 291.911621,157.058838 
	C282.226990,162.343887 272.746582,156.829163 272.193634,145.761734 
	C272.077515,143.437622 272.097504,141.100769 272.178192,138.774078 
	C272.313477,134.873672 271.650604,131.470581 267.537476,129.739029 
	C263.370911,127.985008 260.540863,130.179077 257.851562,132.869125 
	C250.322784,140.400040 242.778168,147.915359 235.286301,155.482849 
	C230.989670,159.822830 230.793213,162.387650 233.810501,167.972031 
	C229.647476,172.057510 225.791931,175.984848 221.615875,179.973358 
	C220.796921,180.426758 220.298462,180.819016 219.471680,181.079102 
	C214.890427,178.218719 211.271255,179.337280 207.988464,182.739105 
	C206.138107,184.656555 204.229218,186.517639 202.340195,188.397568 
	C198.319595,192.398834 193.668396,193.877808 188.223389,191.741699 
	C182.777161,189.605118 180.362640,185.307251 180.104675,179.686752 
	C179.952057,176.361725 180.192963,173.016876 180.000702,169.695786 
	C179.702774,164.549118 175.354126,161.244507 170.728729,162.889389 
	C168.650543,163.628448 166.730011,165.227417 165.127777,166.826721 
	C133.540115,198.356186 101.866264,229.801407 70.514694,261.564575 
	C46.802502,285.588104 34.121559,314.787445 33.366432,348.501373 
	C32.482243,387.977661 46.902184,421.475098 76.367195,447.850342 
	C103.626625,472.251251 135.886215,483.263214 172.447205,480.015076 
	C183.071747,479.071198 193.511429,476.046539 204.035858,473.975708 
z"/>
<path fill="#DC8428" opacity="1.000000" stroke="none" 
	d="
M427.828430,96.695724 
	C428.433746,96.323120 429.356537,96.092400 429.596161,95.556328 
	C432.506470,89.044853 435.004181,82.329788 438.230652,75.983604 
	C442.313171,67.953552 446.869598,60.156765 451.431732,52.382679 
	C452.893188,49.892311 455.021942,47.793533 456.825378,45.163750 
	C456.805359,44.811913 456.842224,44.835350 457.137756,44.897221 
	C457.881866,44.588673 458.330414,44.218258 458.778961,43.847832 
	C466.976624,39.046562 475.174255,34.245293 483.371918,29.444027 
	C483.688019,29.786402 484.004120,30.128778 484.320221,30.471155 
	C483.367920,32.313393 482.471313,34.186962 481.455231,35.993324 
	C453.825226,85.112534 426.163055,134.213669 398.581055,183.359802 
	C396.400299,187.245468 394.761780,191.435425 392.283630,195.767456 
	C386.723694,195.424530 382.298248,191.404236 382.071594,186.699020 
	C381.914276,183.432358 382.527588,180.128555 382.827759,176.858002 
	C382.858948,176.874634 382.802612,176.914093 382.989685,176.886169 
	C383.280548,176.791931 383.482086,176.692795 383.472595,176.664505 
	C383.399719,176.447556 383.285889,176.244354 383.233093,175.693878 
	C393.568481,156.998703 403.821655,138.627396 414.158539,120.303329 
	C418.626038,112.383873 423.266510,104.561958 427.828430,96.695724 
z"/>
<path fill="#E39444" opacity="1.000000" stroke="none" 
	d="
M386.043213,310.391602 
	C383.535461,312.227234 380.409515,313.301056 378.275635,315.388824 
	C369.496582,323.978027 361.018982,332.875427 352.030243,341.470520 
	C350.049469,335.302917 348.390289,334.043152 342.297211,333.925323 
	C338.659790,333.854980 334.929352,334.089203 331.408417,333.367859 
	C321.723267,331.383728 317.736725,319.936829 324.573395,312.897552 
	C338.207001,298.860016 352.296661,285.265381 366.413635,271.894104 
	C367.213776,279.535614 369.878357,285.483887 376.667358,289.089050 
	C377.703461,287.885101 378.520447,286.935730 379.337433,285.986389 
	C377.767059,295.041199 379.222076,303.274841 386.043213,310.391602 
z"/>
<path fill="#E19445" opacity="1.000000" stroke="none" 
	d="
M382.796631,176.841354 
	C382.527588,180.128555 381.914276,183.432358 382.071594,186.699020 
	C382.298248,191.404236 386.723694,195.424530 392.119934,196.067719 
	C391.016510,210.803223 397.924988,220.515701 412.484680,224.684616 
	C410.875366,225.637711 409.084015,225.921631 408.064941,226.962021 
	C400.296539,234.892654 392.678894,242.970947 384.970886,250.613831 
	C384.104858,243.835388 382.188416,241.990433 376.138367,241.857498 
	C373.483887,241.799179 370.821198,241.947968 368.172943,241.804672 
	C357.169891,241.209305 351.745819,231.736267 356.927734,222.082123 
	C360.065552,216.236328 363.369415,210.478165 366.671936,204.722641 
	C372.015137,195.410706 377.418610,186.133331 382.796631,176.841354 
z"/>
<path fill="#DF8527" opacity="1.000000" stroke="none" 
	d="
M385.014313,251.003265 
	C392.678894,242.970947 400.296539,234.892654 408.064941,226.962021 
	C409.084015,225.921631 410.875366,225.637711 412.691254,224.997437 
	C413.242065,224.998291 413.410645,225.005127 414.135132,225.351044 
	C420.449127,225.520538 426.207245,225.350937 431.965363,225.181335 
	C432.404236,225.134995 432.843109,225.088638 433.649658,225.416718 
	C434.041443,225.992157 434.065613,226.193176 434.089752,226.394180 
	C434.089752,226.394180 434.171143,226.719772 433.823547,227.003906 
	C433.263397,227.606873 433.050873,227.925690 432.838318,228.244537 
	C421.715424,239.566071 410.601990,250.896927 399.464905,262.204498 
	C395.048676,266.688385 390.354462,270.923218 386.217926,275.648804 
	C383.659180,278.571991 381.912170,282.205780 379.569092,285.753479 
	C378.520447,286.935730 377.703461,287.885101 376.667358,289.089050 
	C369.878357,285.483887 367.213776,279.535614 366.513916,271.908447 
	C366.398438,271.516541 366.538544,271.658661 366.881287,271.657349 
	C367.458374,271.061890 367.692688,270.467743 367.942993,269.913055 
	C367.958954,269.952484 367.875092,269.966827 368.124115,269.864075 
	C368.573608,269.470947 368.774048,269.180573 368.978333,268.934540 
	C368.982147,268.978851 368.893219,268.977905 369.164612,268.846863 
	C369.677795,268.394836 369.919617,268.073822 370.256042,267.450256 
	C375.238525,261.766205 380.126434,256.384735 385.014313,251.003265 
z"/>
<path fill="#E19445" opacity="1.000000" stroke="none" 
	d="
M431.503967,225.109955 
	C426.207245,225.350937 420.449127,225.520538 414.374878,225.432144 
	C419.720062,225.128967 425.381317,225.083771 431.503967,225.109955 
z"/>
<path fill="#E09446" opacity="1.000000" stroke="none" 
	d="
M458.474182,43.850601 
	C458.330414,44.218258 457.881866,44.588673 457.126251,44.914692 
	C457.269287,44.531319 457.719360,44.192345 458.474182,43.850601 
z"/>
<path fill="#E19445" opacity="1.000000" stroke="none" 
	d="
M434.400360,226.306213 
	C434.065613,226.193176 434.041443,225.992157 433.974915,225.490356 
	C434.492218,225.262589 435.051849,225.335587 435.611511,225.408600 
	C435.311310,225.678467 435.011139,225.948349 434.400360,226.306213 
z"/>
<path fill="#E19445" opacity="1.000000" stroke="none" 
	d="
M433.135101,228.139954 
	C433.050873,227.925690 433.263397,227.606873 433.717407,227.133881 
	C433.783203,227.331619 433.607544,227.683517 433.135101,228.139954 
z"/>
<path fill="#080503" opacity="1.000000" stroke="none" 
	d="
M384.970886,250.613831 
	C380.126434,256.384735 375.238525,261.766205 369.949341,267.543396 
	C369.329773,268.285370 369.111481,268.631622 368.893219,268.977905 
	C368.893219,268.977905 368.982147,268.978851 368.709534,269.012451 
	C368.249634,269.352997 368.062347,269.659912 367.875092,269.966827 
	C367.875092,269.966827 367.958954,269.952484 367.644348,270.025635 
	C367.066010,270.618713 366.802277,271.138702 366.538544,271.658661 
	C366.538544,271.658661 366.398438,271.516541 366.298187,271.502167 
	C352.296661,285.265381 338.207001,298.860016 324.573395,312.897552 
	C317.736725,319.936829 321.723267,331.383728 331.408417,333.367859 
	C334.929352,334.089203 338.659790,333.854980 342.297211,333.925323 
	C348.390289,334.043152 350.049469,335.302917 351.733368,341.627075 
	C350.649048,343.927063 349.795319,346.215485 348.224304,347.786774 
	C315.364655,380.652008 282.520294,413.533783 249.450241,446.186737 
	C236.706970,458.769348 221.429428,467.523041 204.297867,473.734192 
	C193.511429,476.046539 183.071747,479.071198 172.447205,480.015076 
	C135.886215,483.263214 103.626625,472.251251 76.367195,447.850342 
	C46.902184,421.475098 32.482243,387.977661 33.366432,348.501373 
	C34.121559,314.787445 46.802502,285.588104 70.514694,261.564575 
	C101.866264,229.801407 133.540115,198.356186 165.127777,166.826721 
	C166.730011,165.227417 168.650543,163.628448 170.728729,162.889389 
	C175.354126,161.244507 179.702774,164.549118 180.000702,169.695786 
	C180.192963,173.016876 179.952057,176.361725 180.104675,179.686752 
	C180.362640,185.307251 182.777161,189.605118 188.223389,191.741699 
	C193.668396,193.877808 198.319595,192.398834 202.340195,188.397568 
	C204.229218,186.517639 206.138107,184.656555 207.988464,182.739105 
	C211.271255,179.337280 214.890427,178.218719 219.527710,181.446915 
	C223.129318,185.609482 222.118317,189.189240 219.802429,192.828262 
	C219.904297,192.915100 219.738297,192.705048 219.426605,192.824219 
	C217.811462,194.220291 216.430527,195.427963 215.217255,196.785461 
	C207.851089,205.027222 198.830704,208.962387 187.606720,207.574799 
	C187.516251,207.650406 187.662704,207.835190 187.434479,207.517166 
	C176.679565,204.537308 169.617615,197.957809 166.415466,188.883011 
	C160.524307,194.217407 154.650696,199.535919 148.841003,204.879959 
	C148.904938,204.905502 148.916473,204.768356 148.637665,204.858917 
	C148.161774,205.272339 147.964722,205.595200 147.838898,205.915543 
	C147.910126,205.913010 147.867142,205.777084 147.576538,205.891434 
	C146.758041,206.636047 146.230164,207.266312 145.399796,208.019913 
	C138.677567,214.568222 132.257843,220.993195 125.592758,227.663727 
	C126.547081,227.868683 126.881104,228.033768 127.180862,227.985596 
	C127.828506,227.881531 128.457214,227.662750 129.096024,227.500183 
	C148.401520,222.586960 167.818130,221.772964 187.377335,225.881439 
	C193.847122,227.240433 195.120117,228.787491 195.103287,236.076752 
	C192.597443,240.853790 188.925262,241.514938 184.342621,240.560974 
	C169.495544,237.470306 154.562302,237.359085 139.742004,240.511154 
	C78.160072,253.608795 39.545975,310.219757 50.171612,372.294617 
	C54.146297,395.514679 64.595139,415.687988 81.931488,432.412323 
	C108.686272,458.319153 140.466217,469.437775 177.016678,464.667938 
	C247.796097,455.431244 292.326813,383.812683 269.789307,316.067108 
	C264.324768,299.641113 255.949646,284.812805 242.924408,272.580688 
	C234.607544,265.914154 226.557571,259.365448 218.174881,253.274612 
	C214.212112,250.395294 212.046478,247.373856 213.943878,242.215363 
	C218.549332,237.743744 220.990189,237.405228 226.008362,240.325806 
	C275.483887,269.120605 299.839508,324.996552 287.396332,381.099640 
	C287.066101,382.588593 287.032745,384.143372 286.860962,385.667450 
	C287.332275,385.971313 287.803589,386.275208 288.274872,386.579102 
	C294.216949,380.480713 300.159027,374.382324 306.387421,368.140259 
	C307.220245,367.349243 307.766785,366.701813 308.508240,366.038574 
	C308.967804,365.884399 309.084290,365.666718 309.372375,365.222717 
	C315.285217,359.613190 320.878265,354.150726 327.097687,348.076538 
	C317.558075,345.239258 312.159302,339.273743 308.082275,331.905365 
	C308.069946,331.961456 308.184814,331.961731 308.152466,331.580444 
	C307.463715,329.579407 306.807343,327.959625 306.172363,326.316528 
	C306.193726,326.293152 306.256866,326.297882 306.370728,325.840210 
	C305.242493,315.786133 308.274292,307.708740 315.083527,300.927399 
	C327.472443,288.589264 339.838074,276.227722 352.196625,263.859192 
	C354.720367,261.333405 357.170319,258.733948 359.721130,256.099457 
	C356.573120,254.374603 353.804871,253.190292 351.405090,251.486908 
	C339.392120,242.960007 336.543335,227.757431 344.425629,213.679489 
	C362.473450,181.445953 380.634308,149.275711 398.730774,117.069405 
	C399.214508,116.208496 399.486298,115.228500 400.188904,113.475990 
	C389.735046,119.332947 380.160309,124.684242 370.597931,130.057465 
	C346.803986,143.427582 323.081177,156.926071 299.201782,170.141663 
	C283.551697,178.802887 266.515289,172.919327 259.225403,156.716446 
	C258.907043,156.008804 258.572601,155.308411 257.656311,153.336044 
	C253.423065,157.925476 249.697006,161.890060 246.057373,165.932449 
	C242.555008,169.822388 238.662537,170.768417 234.117981,167.813889 
	C230.793213,162.387650 230.989670,159.822830 235.286301,155.482849 
	C242.778168,147.915359 250.322784,140.400040 257.851562,132.869125 
	C260.540863,130.179077 263.370911,127.985008 267.537476,129.739029 
	C271.650604,131.470581 272.313477,134.873672 272.178192,138.774078 
	C272.097504,141.100769 272.077515,143.437622 272.193634,145.761734 
	C272.746582,156.829163 282.226990,162.343887 291.911621,157.058838 
	C303.735291,150.606506 315.430634,143.918610 327.170776,137.313583 
	C356.446716,120.842911 385.729034,104.383545 414.971252,87.853195 
	C418.215454,86.019287 421.357025,84.920609 424.770050,87.081139 
	C428.065857,89.167458 428.459839,92.379036 427.849426,96.291389 
	C423.266510,104.561958 418.626038,112.383873 414.158539,120.303329 
	C403.821655,138.627396 393.568481,156.998703 383.071350,175.884430 
	C382.861298,176.417999 382.802612,176.914093 382.802612,176.914093 
	C382.802612,176.914093 382.858948,176.874634 382.827789,176.858002 
	C377.418610,186.133331 372.015137,195.410706 366.671936,204.722641 
	C363.369415,210.478165 360.065552,216.236328 356.927734,222.082123 
	C351.745819,231.736267 357.169891,241.209305 368.172943,241.804672 
	C370.821198,241.947968 373.483887,241.799179 376.138367,241.857498 
	C382.188416,241.990433 384.104858,243.835388 384.970886,250.613831 
z"/>
<path fill="#F3E069" opacity="1.000000" stroke="none" 
	d="
M233.810501,167.972031 
	C238.662537,170.768417 242.555008,169.822388 246.057373,165.932449 
	C249.697006,161.890060 253.423065,157.925476 257.656311,153.336044 
	C258.572601,155.308411 258.907043,156.008804 259.225403,156.716446 
	C266.515289,172.919327 283.551697,178.802887 299.201782,170.141663 
	C323.081177,156.926071 346.803986,143.427582 370.597931,130.057465 
	C380.160309,124.684242 389.735046,119.332947 400.188904,113.475990 
	C399.486298,115.228500 399.214508,116.208496 398.730774,117.069405 
	C380.634308,149.275711 362.473450,181.445953 344.425629,213.679489 
	C336.543335,227.757431 339.392120,242.960007 351.405090,251.486908 
	C353.804871,253.190292 356.573120,254.374603 359.721130,256.099457 
	C357.170319,258.733948 354.720367,261.333405 352.196625,263.859192 
	C339.838074,276.227722 327.472443,288.589264 315.083527,300.927399 
	C308.274292,307.708740 305.242493,315.786133 306.050537,325.523560 
	C305.410034,323.879395 305.305328,322.075287 304.978333,320.312469 
	C303.932831,314.676331 303.453217,308.824799 301.553223,303.484009 
	C298.862579,295.920837 295.100800,288.738770 292.206604,281.449615 
	C295.272644,280.527679 298.546906,280.223053 300.475311,278.452606 
	C307.803589,271.724640 314.738312,264.563751 321.736847,257.482391 
	C325.783752,253.387589 326.099701,248.949493 322.802368,245.671280 
	C319.547424,242.435211 315.103851,242.877457 310.999969,246.947266 
	C304.165680,253.724808 297.463806,260.638580 290.527985,267.309723 
	C287.464966,270.255859 286.214325,273.478027 287.043701,277.804199 
	C285.626404,274.800568 284.895264,271.278839 283.120209,268.401031 
	C274.027954,253.660065 261.575348,242.047211 247.665405,232.006546 
	C244.738907,229.894089 240.719559,229.307083 237.233231,227.941940 
	C236.863693,227.797226 236.693390,227.143723 236.826080,226.774857 
	C241.043655,227.805267 243.921371,226.293564 246.555862,223.603073 
	C253.404388,216.608948 260.395325,209.754456 267.267578,202.783279 
	C271.024689,198.972061 271.423248,194.474548 268.455078,191.326523 
	C265.251495,187.928818 260.674927,188.167542 256.660370,192.136307 
	C249.462555,199.252075 242.138016,206.261902 235.345169,213.750244 
	C233.534149,215.746658 233.461258,219.319778 232.225159,222.045120 
	C230.137100,220.967499 228.487518,219.835892 226.678696,219.091034 
	C219.145126,215.988815 211.563644,213.003006 204.054703,209.633209 
	C207.270355,206.589172 210.877502,204.248672 213.454453,201.072357 
	C215.627594,198.393784 220.538498,197.596695 219.738297,192.705048 
	C219.738297,192.705048 219.904297,192.915100 220.204834,192.897736 
	C224.599091,191.034775 225.312729,184.567566 221.936371,179.912201 
	C225.791931,175.984848 229.647476,172.057510 233.810501,167.972031 
M287.450226,215.950363 
	C281.919312,221.485672 276.305573,226.941391 270.884521,232.582275 
	C266.776611,236.856766 267.337646,242.259247 271.994904,244.836365 
	C276.087006,247.100769 279.274261,245.354828 282.225830,242.398682 
	C298.694550,225.904434 315.216675,209.463486 331.672791,192.956680 
	C335.789032,188.827744 336.175049,184.388641 332.956543,181.121460 
	C329.621429,177.735931 325.155060,178.248734 320.792999,182.600967 
	C309.832001,193.537277 298.896149,204.498718 287.450226,215.950363 
z"/>
<path fill="#EFDC69" opacity="1.000000" stroke="none" 
	d="
M221.615875,179.973358 
	C225.312729,184.567566 224.599091,191.034775 220.102966,192.810913 
	C222.118317,189.189240 223.129318,185.609482 219.856033,181.579071 
	C220.298462,180.819016 220.796921,180.426758 221.615875,179.973358 
z"/>
<path fill="#E19445" opacity="1.000000" stroke="none" 
	d="
M382.989685,176.886169 
	C382.802612,176.914093 382.861298,176.417999 383.023010,176.227448 
	C383.285889,176.244354 383.399719,176.447556 383.472595,176.664505 
	C383.482086,176.692795 383.280548,176.791931 382.989685,176.886169 
z"/>
<path fill="#E39444" opacity="1.000000" stroke="none" 
	d="
M366.881287,271.657349 
	C366.802277,271.138702 367.066010,270.618713 367.628357,269.986206 
	C367.692688,270.467743 367.458374,271.061890 366.881287,271.657349 
z"/>
<path fill="#E39444" opacity="1.000000" stroke="none" 
	d="
M368.124115,269.864075 
	C368.062347,269.659912 368.249634,269.352997 368.705688,268.968140 
	C368.774048,269.180573 368.573608,269.470947 368.124115,269.864075 
z"/>
<path fill="#E39444" opacity="1.000000" stroke="none" 
	d="
M369.164612,268.846863 
	C369.111481,268.631622 369.329773,268.285370 369.854767,267.845947 
	C369.919617,268.073822 369.677795,268.394836 369.164612,268.846863 
z"/>
<path fill="#B5C2CD" opacity="1.000000" stroke="none" 
	d="
M213.742172,242.459702 
	C212.046478,247.373856 214.212112,250.395294 218.174881,253.274612 
	C226.557571,259.365448 234.607544,265.914154 242.896240,272.988922 
	C244.042343,277.467377 244.987823,281.262543 246.146622,284.991394 
	C251.949051,303.662842 252.595398,322.613556 249.171265,341.753723 
	C248.582840,345.042938 247.312408,348.210114 246.041504,351.309937 
	C238.032639,346.091675 229.869781,345.251984 221.629105,349.360870 
	C212.814651,353.755768 208.171448,361.286926 208.465912,371.093567 
	C208.794754,382.045715 214.884552,389.250854 224.982956,393.563202 
	C222.968628,396.815796 221.249100,399.979919 218.874802,402.535767 
	C204.143127,418.393707 186.543655,429.866364 165.746353,436.089783 
	C161.956207,437.223999 157.796494,437.123169 154.086380,437.401123 
	C171.447357,429.943695 179.600296,416.591400 179.923904,398.464752 
	C180.429703,370.133698 157.869598,342.181641 129.089508,334.901794 
	C94.010300,326.028625 67.611237,350.545502 73.939873,386.119385 
	C78.789352,413.378723 103.623405,436.105591 132.665070,440.416962 
	C119.663185,442.008423 107.428299,439.537506 95.313751,436.189636 
	C90.779198,434.936523 86.304085,433.468231 81.801865,432.098053 
	C64.595139,415.687988 54.146297,395.514679 50.171612,372.294617 
	C39.545975,310.219757 78.160072,253.608795 139.742004,240.511154 
	C154.562302,237.359085 169.495544,237.470306 184.342621,240.560974 
	C188.925262,241.514938 192.597443,240.853790 195.470276,236.145599 
	C201.928680,238.080994 207.835434,240.270340 213.742172,242.459702 
M166.069733,318.860840 
	C168.006699,318.398438 169.988022,318.071075 171.873489,317.451843 
	C184.786606,313.210907 193.553696,301.275757 193.784027,287.726562 
	C194.010406,274.409546 185.358322,262.013885 172.631149,257.421234 
	C160.176514,252.926895 145.879242,256.779510 137.501602,267.293121 
	C129.157089,277.765198 127.662788,289.462036 133.674500,301.395721 
	C140.077347,314.105865 150.973404,319.742859 166.069733,318.860840 
M215.066071,292.592987 
	C214.025467,296.723816 214.624237,300.826141 218.798172,302.248047 
	C221.464722,303.156403 225.578369,302.693359 227.805771,301.107300 
	C229.598724,299.830597 230.648270,295.628479 229.983215,293.311035 
	C229.319962,290.999786 226.407928,288.580627 223.951172,287.715118 
	C220.329910,286.439331 217.230713,288.463684 215.066071,292.592987 
M99.980354,288.412079 
	C96.462715,286.685242 92.745758,286.750732 90.488579,289.858673 
	C88.954765,291.970642 87.852509,295.749359 88.729187,297.895508 
	C89.694839,300.259430 93.062027,302.877594 95.538055,303.041412 
	C98.007294,303.204742 101.545349,301.061981 103.045769,298.860748 
	C105.458817,295.320618 104.116508,291.536743 99.980354,288.412079 
M187.264145,342.181488 
	C190.557129,345.434937 194.205124,346.022614 198.032516,343.291168 
	C201.507919,340.810944 202.149384,337.206848 200.579041,333.528503 
	C199.055908,329.960693 195.938141,328.448273 192.015198,328.964417 
	C186.202881,329.729187 183.966721,335.130280 187.264145,342.181488 
z"/>
<path fill="#9EABB8" opacity="1.000000" stroke="none" 
	d="
M246.357025,351.433685 
	C247.312408,348.210114 248.582840,345.042938 249.171265,341.753723 
	C252.595398,322.613556 251.949051,303.662842 246.146622,284.991394 
	C244.987823,281.262543 244.042343,277.467377 243.026672,273.294556 
	C255.949646,284.812805 264.324768,299.641113 269.789307,316.067108 
	C292.326813,383.812683 247.796097,455.431244 177.016678,464.667938 
	C140.466217,469.437775 108.686272,458.319153 81.931488,432.412323 
	C86.304085,433.468231 90.779198,434.936523 95.313751,436.189636 
	C107.428299,439.537506 119.663185,442.008423 133.125427,440.348938 
	C140.535782,439.206299 147.171585,438.399384 153.807388,437.592468 
	C157.796494,437.123169 161.956207,437.223999 165.746353,436.089783 
	C186.543655,429.866364 204.143127,418.393707 218.874802,402.535767 
	C221.249100,399.979919 222.968628,396.815796 225.397385,393.571716 
	C233.130722,395.208984 239.882462,393.963806 246.031876,389.542328 
	C256.727905,381.851807 260.950928,363.938873 246.357025,351.433685 
M217.710922,418.720581 
	C214.239929,416.133057 210.171509,415.515839 207.352295,418.696533 
	C205.508865,420.776306 204.471924,424.724884 204.984756,427.480804 
	C205.850754,432.134674 211.534607,434.047150 215.802475,431.976196 
	C220.535355,429.679596 221.494461,424.753754 217.710922,418.720581 
z"/>
<path fill="#EFD137" opacity="1.000000" stroke="none" 
	d="
M213.943878,242.215363 
	C207.835434,240.270340 201.928680,238.080994 195.654968,235.822784 
	C195.120117,228.787491 193.847122,227.240433 187.377335,225.881439 
	C167.818130,221.772964 148.401520,222.586960 129.096024,227.500183 
	C128.457214,227.662750 127.828506,227.881531 127.180862,227.985596 
	C126.881104,228.033768 126.547081,227.868683 125.592758,227.663727 
	C132.257843,220.993195 138.677567,214.568222 145.762878,208.009003 
	C146.908020,207.175537 147.387573,206.476303 147.867142,205.777084 
	C147.867142,205.777084 147.910126,205.913010 148.119644,205.828217 
	C148.524933,205.418396 148.720703,205.093369 148.916473,204.768356 
	C148.916473,204.768356 148.904938,204.905502 149.323792,204.943390 
	C154.370850,204.946167 159.013229,204.668427 163.623611,204.938049 
	C169.240494,205.266525 174.835266,206.013977 180.429810,206.664429 
	C182.853394,206.946213 185.252487,207.438507 187.662704,207.835175 
	C187.662704,207.835190 187.516251,207.650406 187.890930,207.944122 
	C193.510300,208.816742 198.755020,209.395615 203.999725,209.974487 
	C211.563644,213.003006 219.145126,215.988815 226.678696,219.091034 
	C228.487518,219.835892 230.137100,220.967499 232.387177,222.280685 
	C234.086502,224.002182 235.258575,225.364227 236.430649,226.726257 
	C236.693390,227.143723 236.863693,227.797226 237.233231,227.941940 
	C240.719559,229.307083 244.738907,229.894089 247.665405,232.006546 
	C261.575348,242.047211 274.027954,253.660065 283.120209,268.401031 
	C284.895264,271.278839 285.626404,274.800568 287.307739,277.979248 
	C289.116577,279.086731 290.456696,280.240265 291.796814,281.393799 
	C295.100800,288.738770 298.862579,295.920837 301.553223,303.484009 
	C303.453217,308.824799 303.932831,314.676331 304.978333,320.312469 
	C305.305328,322.075287 305.410034,323.879395 305.936676,325.981232 
	C306.256866,326.297882 306.193726,326.293152 306.136963,326.743835 
	C306.781738,328.783600 307.483276,330.372681 308.184814,331.961731 
	C308.184814,331.961731 308.069946,331.961456 308.045441,332.342468 
	C308.364838,343.605591 308.708740,354.487701 309.052612,365.369781 
	C309.084290,365.666718 308.967804,365.884399 308.134155,366.058533 
	C307.077118,366.824158 306.589111,367.554016 306.101105,368.283905 
	C300.159027,374.382324 294.216949,380.480713 288.274872,386.579102 
	C287.803589,386.275208 287.332275,385.971313 286.860962,385.667450 
	C287.032745,384.143372 287.066101,382.588593 287.396332,381.099640 
	C299.839508,324.996552 275.483887,269.120605 226.008362,240.325806 
	C220.990189,237.405228 218.549332,237.743744 213.943878,242.215363 
z"/>
<path fill="#EFDC69" opacity="1.000000" stroke="none" 
	d="
M187.434479,207.517151 
	C185.252487,207.438507 182.853394,206.946213 180.429810,206.664429 
	C174.835266,206.013977 169.240494,205.266525 163.623611,204.938049 
	C159.013229,204.668427 154.370850,204.946167 149.259857,204.917847 
	C154.650696,199.535919 160.524307,194.217407 166.415466,188.883011 
	C169.617615,197.957809 176.679565,204.537308 187.434479,207.517151 
z"/>
<path fill="#F0DE6A" opacity="1.000000" stroke="none" 
	d="
M309.372375,365.222717 
	C308.708740,354.487701 308.364838,343.605591 308.057770,332.286377 
	C312.159302,339.273743 317.558075,345.239258 327.097687,348.076538 
	C320.878265,354.150726 315.285217,359.613190 309.372375,365.222717 
z"/>
<path fill="#EFDC69" opacity="1.000000" stroke="none" 
	d="
M204.054703,209.633209 
	C198.755020,209.395615 193.510300,208.816742 187.981384,207.868530 
	C198.830704,208.962387 207.851089,205.027222 215.217255,196.785461 
	C216.430527,195.427963 217.811462,194.220291 219.426605,192.824219 
	C220.538498,197.596695 215.627594,198.393784 213.454453,201.072357 
	C210.877502,204.248672 207.270355,206.589172 204.054703,209.633209 
z"/>
<path fill="#F0DE6A" opacity="1.000000" stroke="none" 
	d="
M308.152466,331.580444 
	C307.483276,330.372681 306.781738,328.783600 306.115601,326.767212 
	C306.807343,327.959625 307.463715,329.579407 308.152466,331.580444 
z"/>
<path fill="#F0DE6A" opacity="1.000000" stroke="none" 
	d="
M306.387421,368.140259 
	C306.589111,367.554016 307.077118,366.824158 307.939209,366.074341 
	C307.766785,366.701813 307.220245,367.349243 306.387421,368.140259 
z"/>
<path fill="#EFDC69" opacity="1.000000" stroke="none" 
	d="
M147.576538,205.891434 
	C147.387573,206.476303 146.908020,207.175537 146.065369,207.885666 
	C146.230164,207.266312 146.758041,206.636047 147.576538,205.891434 
z"/>
<path fill="#EFDC69" opacity="1.000000" stroke="none" 
	d="
M148.637665,204.858917 
	C148.720703,205.093369 148.524933,205.418396 148.048401,205.830750 
	C147.964722,205.595200 148.161774,205.272339 148.637665,204.858917 
z"/>
<path fill="#080602" opacity="1.000000" stroke="none" 
	d="
M287.700195,215.700226 
	C298.896149,204.498718 309.832001,193.537277 320.792999,182.600967 
	C325.155060,178.248734 329.621429,177.735931 332.956543,181.121460 
	C336.175049,184.388641 335.789032,188.827744 331.672791,192.956680 
	C315.216675,209.463486 298.694550,225.904434 282.225830,242.398682 
	C279.274261,245.354828 276.087006,247.100769 271.994904,244.836365 
	C267.337646,242.259247 266.776611,236.856766 270.884521,232.582275 
	C276.305573,226.941391 281.919312,221.485672 287.700195,215.700226 
z"/>
<path fill="#0D0A05" opacity="1.000000" stroke="none" 
	d="
M292.206604,281.449615 
	C290.456696,280.240265 289.116577,279.086731 287.512390,277.758179 
	C286.214325,273.478027 287.464966,270.255859 290.527985,267.309723 
	C297.463806,260.638580 304.165680,253.724808 310.999969,246.947266 
	C315.103851,242.877457 319.547424,242.435211 322.802368,245.671280 
	C326.099701,248.949493 325.783752,253.387589 321.736847,257.482391 
	C314.738312,264.563751 307.803589,271.724640 300.475311,278.452606 
	C298.546906,280.223053 295.272644,280.527679 292.206604,281.449615 
z"/>
<path fill="#0D0B05" opacity="1.000000" stroke="none" 
	d="
M236.826080,226.774857 
	C235.258575,225.364227 234.086502,224.002182 232.752411,222.404572 
	C233.461258,219.319778 233.534149,215.746658 235.345169,213.750244 
	C242.138016,206.261902 249.462555,199.252075 256.660370,192.136307 
	C260.674927,188.167542 265.251495,187.928818 268.455078,191.326523 
	C271.423248,194.474548 271.024689,198.972061 267.267578,202.783279 
	C260.395325,209.754456 253.404388,216.608948 246.555862,223.603073 
	C243.921371,226.293564 241.043655,227.805267 236.826080,226.774857 
z"/>
<path fill="#040406" opacity="1.000000" stroke="none" 
	d="
M154.086380,437.401123 
	C147.171585,438.399384 140.535782,439.206299 133.439606,440.081238 
	C103.623405,436.105591 78.789352,413.378723 73.939873,386.119385 
	C67.611237,350.545502 94.010300,326.028625 129.089508,334.901794 
	C157.869598,342.181641 180.429703,370.133698 179.923904,398.464752 
	C179.600296,416.591400 171.447357,429.943695 154.086380,437.401123 
M137.490601,425.193909 
	C155.251328,424.582550 165.389999,413.879669 165.019592,396.133026 
	C164.539810,373.146606 140.760529,349.152435 117.370689,348.053558 
	C99.400093,347.209290 87.605240,358.682251 87.941208,376.679810 
	C88.390236,400.733551 111.632004,423.922943 137.490601,425.193909 
z"/>
<path fill="#040506" opacity="1.000000" stroke="none" 
	d="
M165.624969,318.902039 
	C150.973404,319.742859 140.077347,314.105865 133.674500,301.395721 
	C127.662788,289.462036 129.157089,277.765198 137.501602,267.293121 
	C145.879242,256.779510 160.176514,252.926895 172.631149,257.421234 
	C185.358322,262.013885 194.010406,274.409546 193.784027,287.726562 
	C193.553696,301.275757 184.786606,313.210907 171.873489,317.451843 
	C169.988022,318.071075 168.006699,318.398438 165.624969,318.902039 
M175.733536,277.928436 
	C170.020172,270.943207 162.357910,268.825287 154.932236,272.178741 
	C148.388687,275.133881 144.113297,282.931488 145.431335,289.763458 
	C146.820465,296.963867 151.072449,301.778656 158.191864,303.549774 
	C164.956482,305.232635 170.770599,303.052887 175.033844,297.613312 
	C179.718262,291.636322 179.937149,285.156982 175.733536,277.928436 
z"/>
<path fill="#040506" opacity="1.000000" stroke="none" 
	d="
M246.041504,351.309937 
	C260.950928,363.938873 256.727905,381.851807 246.031876,389.542328 
	C239.882462,393.963806 233.130722,395.208984 225.389496,393.202057 
	C214.884552,389.250854 208.794754,382.045715 208.465912,371.093567 
	C208.171448,361.286926 212.814651,353.755768 221.629105,349.360870 
	C229.869781,345.251984 238.032639,346.091675 246.041504,351.309937 
M239.850800,374.162170 
	C241.651993,369.691315 240.623154,365.935425 236.628311,363.314362 
	C233.208237,361.070435 229.635941,361.384155 226.486969,364.016479 
	C223.288803,366.689972 222.709808,370.189209 224.196823,373.931763 
	C226.739487,380.331238 234.254562,380.741486 239.850800,374.162170 
z"/>
<path fill="#08090B" opacity="1.000000" stroke="none" 
	d="
M215.199875,292.248352 
	C217.230713,288.463684 220.329910,286.439331 223.951172,287.715118 
	C226.407928,288.580627 229.319962,290.999786 229.983215,293.311035 
	C230.648270,295.628479 229.598724,299.830597 227.805771,301.107300 
	C225.578369,302.693359 221.464722,303.156403 218.798172,302.248047 
	C214.624237,300.826141 214.025467,296.723816 215.199875,292.248352 
z"/>
<path fill="#07080A" opacity="1.000000" stroke="none" 
	d="
M100.300789,288.616150 
	C104.116508,291.536743 105.458817,295.320618 103.045769,298.860748 
	C101.545349,301.061981 98.007294,303.204742 95.538055,303.041412 
	C93.062027,302.877594 89.694839,300.259430 88.729187,297.895508 
	C87.852509,295.749359 88.954765,291.970642 90.488579,289.858673 
	C92.745758,286.750732 96.462715,286.685242 100.300789,288.616150 
z"/>
<path fill="#080A0C" opacity="1.000000" stroke="none" 
	d="
M187.007294,341.896973 
	C183.966721,335.130280 186.202881,329.729187 192.015198,328.964417 
	C195.938141,328.448273 199.055908,329.960693 200.579041,333.528503 
	C202.149384,337.206848 201.507919,340.810944 198.032516,343.291168 
	C194.205124,346.022614 190.557129,345.434937 187.007294,341.896973 
z"/>
<path fill="#07080A" opacity="1.000000" stroke="none" 
	d="
M217.990051,419.014069 
	C221.494461,424.753754 220.535355,429.679596 215.802475,431.976196 
	C211.534607,434.047150 205.850754,432.134674 204.984756,427.480804 
	C204.471924,424.724884 205.508865,420.776306 207.352295,418.696533 
	C210.171509,415.515839 214.239929,416.133057 217.990051,419.014069 
z"/>
<path fill="#7A8B97" opacity="1.000000" stroke="none" 
	d="
M137.024933,425.191101 
	C111.632004,423.922943 88.390236,400.733551 87.941208,376.679810 
	C87.605240,358.682251 99.400093,347.209290 117.370689,348.053558 
	C140.760529,349.152435 164.539810,373.146606 165.019592,396.133026 
	C165.389999,413.879669 155.251328,424.582550 137.024933,425.191101 
z"/>
<path fill="#798994" opacity="1.000000" stroke="none" 
	d="
M175.938263,278.246307 
	C179.937149,285.156982 179.718262,291.636322 175.033844,297.613312 
	C170.770599,303.052887 164.956482,305.232635 158.191864,303.549774 
	C151.072449,301.778656 146.820465,296.963867 145.431335,289.763458 
	C144.113297,282.931488 148.388687,275.133881 154.932236,272.178741 
	C162.357910,268.825287 170.020172,270.943207 175.938263,278.246307 
z"/>
<path fill="#788792" opacity="1.000000" stroke="none" 
	d="
M239.683578,374.504700 
	C234.254562,380.741486 226.739487,380.331238 224.196823,373.931763 
	C222.709808,370.189209 223.288803,366.689972 226.486969,364.016479 
	C229.635941,361.384155 233.208237,361.070435 236.628311,363.314362 
	C240.623154,365.935425 241.651993,369.691315 239.683578,374.504700 
z"/>
</svg>